<?xml version="1.0" encoding="UTF-8" standalone="no"?>
<!-- Created with Inkscape (http://www.inkscape.org/) -->

<svg
   width="30.000622mm"
   height="30.000626mm"
   viewBox="0 0 30.000622 30.000626"
   version="1.1"
   id="svg1"
   inkscape:version="1.4.2 (1:1.4.2+202505120737+ebf0e940d0)"
   sodipodi:docname="logo.svg"
   xml:space="preserve"
   inkscape:export-filename="logo.png"
   inkscape:export-xdpi="108.37109"
   inkscape:export-ydpi="108.37109"
   xmlns:inkscape="http://www.inkscape.org/namespaces/inkscape"
   xmlns:sodipodi="http://sodipodi.sourceforge.net/DTD/sodipodi-0.dtd"
   xmlns="http://www.w3.org/2000/svg"
   xmlns:svg="http://www.w3.org/2000/svg"><sodipodi:namedview
     id="namedview1"
     pagecolor="#ffffff"
     bordercolor="#000000"
     borderopacity="0.25"
     inkscape:showpageshadow="2"
     inkscape:pageopacity="0.0"
     inkscape:pagecheckerboard="0"
     inkscape:deskcolor="#d1d1d1"
     inkscape:document-units="mm"
     inkscape:zoom="1.0116647"
     inkscape:cx="-70.675594"
     inkscape:cy="33.11374"
     inkscape:window-width="1854"
     inkscape:window-height="1011"
     inkscape:window-x="0"
     inkscape:window-y="0"
     inkscape:window-maximized="1"
     inkscape:current-layer="layer1" /><defs
     id="defs1"><clipPath
       clipPathUnits="userSpaceOnUse"
       id="clipath_lpe_path-effect15-7-6-4-2-5-9-9-4"><path
         style="display:none;fill:#ffffff;fill-opacity:1;stroke-width:0.893061"
         d="m 155.22528,51.029455 c -1.31458,-0.461712 -2.21032,-1.676274 -2.21032,-3.067663 V 3.1077333 H 103.20361 V 47.957327 c 0,1.395854 -0.89574,2.610416 -2.21479,3.076594 -8.687696,3.067663 -16.689519,7.573154 -23.738446,13.221762 -1.419074,1.138653 -3.462396,0.97165 -4.619803,-0.433134 L 62.823873,51.919837 c -1.06185,-1.290473 -2.967641,-1.471764 -4.253648,-0.409915 L 44.7001,62.931274 c -1.290472,1.061849 -1.471764,2.967641 -0.41438,4.253648 l 13.150318,15.970603 c 0.876092,1.061849 0.97165,2.543437 0.275956,3.733887 -7.797313,13.370008 -11.907178,29.153968 -10.898019,45.972078 2.562191,42.59989 38.77044,76.49869 81.447125,76.41742 44.90577,-0.0857 81.27566,-36.51279 81.27566,-81.43731 0.0107,-35.483978 -22.66587,-65.643528 -54.31148,-76.812145 z"
         id="path67-7-6-9" /><path
         id="lpe_path-effect15-7-6-4-2-5-3-9-1"
         style="fill:#ffffff;fill-opacity:1;stroke-width:0.893061"
         class="powerclip"
         d="M -4.8773573,-4.8187095 H 260.78996 V 260.84869 H -4.8773573 Z M 155.22528,51.029455 c -1.31458,-0.461712 -2.21032,-1.676274 -2.21032,-3.067663 V 3.1077333 H 103.20361 V 47.957327 c 0,1.395854 -0.89574,2.610416 -2.21479,3.076594 -8.687696,3.067663 -16.689519,7.573154 -23.738446,13.221762 -1.419074,1.138653 -3.462396,0.97165 -4.619803,-0.433134 L 62.823873,51.919837 c -1.06185,-1.290473 -2.967641,-1.471764 -4.253648,-0.409915 L 44.7001,62.931274 c -1.290472,1.061849 -1.471764,2.967641 -0.41438,4.253648 l 13.150318,15.970603 c 0.876092,1.061849 0.97165,2.543437 0.275956,3.733887 -7.797313,13.370008 -11.907178,29.153968 -10.898019,45.972078 2.562191,42.59989 38.77044,76.49869 81.447125,76.41742 44.90577,-0.0857 81.27566,-36.51279 81.27566,-81.43731 0.0107,-35.483978 -22.66587,-65.643528 -54.31148,-76.812145 z" /></clipPath><clipPath
       clipPathUnits="userSpaceOnUse"
       id="clipath_lpe_path-effect36-1-9-4-6-6-61-3-0"><g
         id="g70-2-38-7"
         style="display:none"><circle
           style="fill:#ffffff"
           cx="318.67462"
           cy="512.94269"
           r="6.3039999"
           id="circle68-9-0-5" /><circle
           style="fill:#ffffff;stroke-width:2.07894"
           cx="395.42404"
           cy="505.17404"
           r="6.9083018"
           id="circle69-3-5-8" /><circle
           style="fill:#ffffff;stroke-width:2.12165"
           cx="346.16235"
           cy="550.76056"
           r="9.0636835"
           id="circle70-1-6-7" /></g><path
         id="lpe_path-effect36-1-9-4-6-6-94-6-0"
         class="powerclip"
         d="m 264.18543,473.35878 h 181.717 v 109.424 h -181.717 z m 60.79319,39.58391 a 6.3039999,6.3039999 0 0 0 -6.304,-6.304 6.3039999,6.3039999 0 0 0 -6.304,6.304 6.3039999,6.3039999 0 0 0 6.304,6.304 6.3039999,6.3039999 0 0 0 6.304,-6.304 z m 77.35372,-7.76865 a 6.9083018,6.9083018 0 0 0 -6.9083,-6.9083 6.9083018,6.9083018 0 0 0 -6.9083,6.9083 6.9083018,6.9083018 0 0 0 6.9083,6.9083 6.9083018,6.9083018 0 0 0 6.9083,-6.9083 z m -47.1063,45.58652 a 9.0636835,9.0636835 0 0 0 -9.06369,-9.06368 9.0636835,9.0636835 0 0 0 -9.06368,9.06368 9.0636835,9.0636835 0 0 0 9.06368,9.06368 9.0636835,9.0636835 0 0 0 9.06369,-9.06368 z" /></clipPath><clipPath
       clipPathUnits="userSpaceOnUse"
       id="clipPath38"><rect
         style="fill:#ffffff;fill-opacity:1;stroke:none;stroke-width:0.301866"
         id="rect38"
         width="26.872478"
         height="15.234277"
         x="91.732582"
         y="124.81646" /></clipPath></defs><g
     inkscape:label="Layer 1"
     inkscape:groupmode="layer"
     id="layer1"
     transform="translate(-89.693748,-117.475)"><rect
       style="fill:#ffffff;fill-opacity:1;stroke:#37abc8;stroke-width:0.5;stroke-dasharray:none;stroke-opacity:1"
       id="rect19182-7-4-4"
       width="29.500622"
       height="29.500626"
       x="89.943748"
       y="117.725"
       ry="2.5857668"
       rx="2.5857668" /><path
       d="m 253.90263,154.43558 -17.54429,-23.38976 c 0.0265,-2.0665 0.005,-4.2712 -0.0254,-6.03023 l 17.56155,-23.41451 a 9.4346689,9.4346689 0 0 0 1.56154,-8.118613 131.44055,131.44055 0 0 0 -12.91322,-31.203153 9.4333835,9.4333835 0 0 0 -6.8467,-4.639707 l -28.87582,-4.123799 q -2.12035,-2.243836 -4.36678,-4.367355 l -4.12265,-28.863155 a 9.4339142,9.4339142 0 0 0 -4.6374,-6.844392 131.42846,131.42846 0 0 0 -31.19394,-12.9327991 9.4358599,9.4358599 0 0 0 -8.12265,1.5598076 l -23.3338,17.5029325 c -2.05672,-0.057 -4.11919,-0.057 -6.17591,0 L 101.5431,2.0766525 A 9.4372632,9.4372632 0 0 0 93.423896,0.51568926 131.43318,131.43318 0 0 0 62.220752,13.428324 9.4356594,9.4356594 0 0 0 57.580468,20.275039 l -4.123222,28.87523 q -2.242998,2.120335 -4.367367,4.367932 L 20.226735,57.64028 A 9.433242,9.433242 0 0 0 13.382331,62.277109 131.42869,131.42869 0 0 0 0.44956616,93.472196 9.4318152,9.4318152 0 0 0 2.0099515,101.59427 L 19.55424,124.98401 c -0.02653,2.0665 -0.0047,4.2712 0.02535,6.03023 L 2.0180292,154.42876 a 9.4347396,9.4347396 0 0 0 -1.56152925,8.11863 131.44075,131.44075 0 0 0 12.91321405,31.20315 9.4333835,9.4333835 0 0 0 6.846703,4.6397 l 28.87582,4.12371 q 2.120348,2.24385 4.366777,4.36735 l 4.122656,28.86315 a 9.4339142,9.4339142 0 0 0 4.637396,6.8444 131.42846,131.42846 0 0 0 31.193946,12.9328 9.4333718,9.4333718 0 0 0 8.122648,-1.55982 L 124.86951,236.459 c 2.05672,0.0581 4.11919,0.0581 6.17591,0 l 23.32406,17.4942 a 9.432334,9.432334 0 0 0 8.11919,1.56096 131.43309,131.43309 0 0 0 31.20316,-12.91264 9.4356241,9.4356241 0 0 0 4.64028,-6.84671 l 4.13301,-28.94433 c 1.47979,-1.44292 3.0229,-3.01655 4.24587,-4.28215 l 28.97485,-4.13876 a 9.433242,9.433242 0 0 0 6.84441,-4.63683 131.42869,131.42869 0 0 0 12.93279,-31.19508 9.4318388,9.4318388 0 0 0 -1.56041,-8.12208 z m -125.94691,25.46425 a 51.88549,51.88549 0 1 1 51.88549,-51.88549 51.944192,51.944192 0 0 1 -51.88549,51.88549 z"
       id="path1-0-6-5-8-8-1-0-0"
       style="fill:#37abc8;fill-opacity:1;stroke-width:1.17922"
       clip-path="url(#clipath_lpe_path-effect15-7-6-4-2-5-9-9-4)"
       transform="matrix(0.09204381,0,0,0.09204381,92.916474,118.75791)" /><circle
       style="fill:#37abc8;fill-opacity:1;stroke-width:0.114257"
       cx="104.47482"
       cy="121.31345"
       r="0.43817371"
       id="circle4-7-5-2-8-2-3-6-6" /><text
       xml:space="preserve"
       style="font-style:normal;font-variant:normal;font-weight:normal;font-stretch:normal;font-size:8.59315px;font-family:Signwood;-inkscape-font-specification:Signwood;fill:#37abc8;fill-opacity:1;stroke:#ffffff;stroke-width:0.5;stroke-dasharray:none;stroke-opacity:1"
       x="93.68409"
       y="145.83139"
       id="text38-9-5-7-3-0-061-5-0"><tspan
         id="tspan38-7-0-8-6-6-5-6-4"
         x="93.68409"
         y="145.83139"
         style="font-style:normal;font-variant:normal;font-weight:normal;font-stretch:normal;font-size:8.59315px;font-family:Signwood;-inkscape-font-specification:Signwood;fill:#37abc8;fill-opacity:1;stroke:#ffffff;stroke-width:0.5;stroke-dasharray:none;stroke-opacity:1">SPhINX</tspan></text><g
       id="g38"
       transform="translate(-0.48275185)"><circle
         style="fill:#37abc8;fill-opacity:1;stroke:none;stroke-width:0.20502"
         id="path37"
         r="7.0574999"
         cy="130.59946"
         cx="105.17681"
         clip-path="url(#clipPath38)" /><circle
         style="fill:#ffffff;fill-opacity:1;stroke-width:0.0822007"
         cx="105.00047"
         cy="136.11597"
         r="0.72427034"
         id="circle3-1-8-6-2-7-6-2-29" /><circle
         style="fill:#ffffff;fill-opacity:1;stroke-width:0.0525182"
         cx="110.131"
         cy="132.9353"
         r="0.46273771"
         id="circle3-1-8-6-2-7-6-2-29-9" /><circle
         style="fill:#ffffff;fill-opacity:1;stroke-width:0.0975388"
         cx="108.05758"
         cy="126.27485"
         r="0.58211136"
         id="circle7-7-6-1-9-4-2-7-1" /><g
         id="g37"
         transform="matrix(1.1521584,0,0,1.1521584,99.367589,127.2498)"
         style="fill:#f9f9f9"><path
           d="M 8.12,3.27 C 8.57,2.95 9.18,2.81 9.9,2.54 L 9.59,1.84 C 8.31,2.07 7.16,1.31 5.91,1.14 4,0.75 2.24,1.9 0.36,2.04 V 2.8 C 2.23,3.21 4,4.06 5.96,3.82 4.75,5.03 3.12,6.46 1.27,5.89 0.63,5.77 0.35,4.87 0.96,4.6 1.23,5.64 2.53,4.9 1.96,4.08 1.57,3.6 0.54,3.82 0.24,4.3 -0.63,5.95 1.08,6.86 2.55,6.62 4.41,6.37 5.84,4.91 7.08,3.6 7.06,4.21 7.26,5.56 6.67,6.1 L 6.68,7 C 7.11,6.66 7.48,5.93 7.6,5.44 7.76,4.81 7.64,4.42 7.7,3.91 7.75,3.68 7.8,3.5 8.12,3.27 Z M 1.9,2.39 C 2.67,2.16 3.48,1.81 4.29,1.73 c -0.42,1.38 1.81,1.54 1.56,0 0.64,0.16 1,0.3 1.94,0.7 C 5.73,3.45 3.74,2.99 1.9,2.39 Z"
           id="path1"
           style="fill:#f9f9f9" /><path
           d="M 0.36,1.81 V 1.01 C 0.59,1.01 1.2,0.83 1.8,0.66 2.8,0.36 4.05,0 4.95,0 5.95,0 7,0.34 7.77,0.58 L 8.68,0.83 C 9.3,0.9 9.66,0.75 9.66,0.75 L 10,1.48 C 9.94,1.5 9.44,1.72 8.59,1.63 8.32,1.6 7.97,1.49 7.53,1.34 6.77,1.1 5.82,0.8 4.95,0.8 4.16,0.8 2.98,1.15 2.03,1.43 1.29,1.64 0.71,1.81 0.36,1.81 Z"
           id="path2"
           style="fill:#f9f9f9" /></g></g></g></svg>
